# xmcd
#
# Track frame offsets: 
#        150
#        13030
#        22935
#        37725
#        48645
#        59270
#        72223
#        85218
#        98820
#        108900
#        118278
#        129625
#        142290
#        152553
#        163520
#        174880
#        186280
#        197150
#        208200
#        222043
#        232398
#        245158
#        256553
#        267735
#        278755
#        289630
#
# Disc length: 4005 seconds
#
# Revision: 10
# Processed by: cddbd v1.5.2PL0 Copyright (c) Steve Scherf et al.
# Submitted via: ExactAudioCopyFreeDBPlugin 1.0
#
DISCID=840fa31a
DTITLE=Various Artist - The OKeh Rhythm and Blues Story, 1949-1957 [box
DTITLE=set]
DYEAR=1993
DGENRE=Rhythm and Blues
TTITLE0=Cliff "King" Solomon - But Officer!
TTITLE1=Sammy Cotton - Give Me One More Drink
TTITLE2=Annie Laurie - Leave it to Me
TTITLE3=Cliff "King" Solomon with Ernestine Anderson - Square Dance Bo
TTITLE3=ogie
TTITLE4=Big John and The Buzzards - Your Cash Ain't Nothin' But Trash
TTITLE5=Big Maybelle - One Monkey Don't Stop No Show
TTITLE6=Titus Turner - My Lonely Room
TTITLE7=The Treniers - Uh Oh (Get Out of the Car)
TTITLE8=Paul Gayten - Creole Alley (ft Lee Allen)
TTITLE9=Larry Darnell - Give Me Your Love
TTITLE10=The Shufflers - Bad, Bad Women
TTITLE11=Big Maybelle - I'm Gettin' Long
TTITLE12=Big John and The Buzzards - Oop Shoop
TTITLE13=The Shufflers - Jump Ted!
TTITLE14=Big Maybelle - Ocean of Tears
TTITLE15=Chuck Willis - Ring Ding Do
TTITLE16=Screamin' Jay Hawkins - Little Demon
TTITLE17=Screamin' Jay Hawkins - I Put A Spell on You
TTITLE18=Andre Williams (Mr. Rhythm) - Bacon Fat
TTITLE19=Hurricane Harry - The Last Meal
TTITLE20=Little Joe and The Thrillers - Let's Do the Slop
TTITLE21=Lloyd Fatman - Where You Been
TTITLE22=Lloyd Fatman - Miss Mushmouth
TTITLE23=The Marquees - Wyatt Earp (ft Marvin Gaye with Bo Diddley, gu
TTITLE23=itar)
TTITLE24=Billy Stewart with Bo Diddley - Billy's Heartache
TTITLE25=Screamin' Jay Hawkins - Yellow Coat
EXTD=
EXTT0=
EXTT1=
EXTT2=
EXTT3=
EXTT4=
EXTT5=
EXTT6=
EXTT7=
EXTT8=
EXTT9=
EXTT10=
EXTT11=
EXTT12=
EXTT13=
EXTT14=
EXTT15=
EXTT16=
EXTT17=
EXTT18=
EXTT19=
EXTT20=
EXTT21=
EXTT22=
EXTT23=
EXTT24=
EXTT25=
PLAYORDER=
